<?xml version="1.0" standalone="no"?>
<!DOCTYPE svg PUBLIC "-//W3C//DTD SVG 20010904//EN"
 "http://www.w3.org/TR/2001/REC-SVG-20010904/DTD/svg10.dtd">
<svg version="1.0" xmlns="http://www.w3.org/2000/svg"
 width="1024.000000pt" height="1024.000000pt" viewBox="0 0 1024.000000 1024.000000"
 preserveAspectRatio="xMidYMid meet">

<g transform="translate(0.000000,1024.000000) scale(0.100000,-0.100000)"
fill="#000000" stroke="none">
<path d="M6606 6147 c3 -10 9 -15 12 -12 3 3 0 11 -7 18 -10 9 -11 8 -5 -6z"/>
<path d="M6641 6070 c0 -8 6 -28 14 -45 17 -39 18 -21 0 25 -7 19 -14 28 -14
20z"/>
<path d="M6299 6055 c17 -33 31 -51 31 -40 0 6 -10 21 -21 35 -13 17 -17 18
-10 5z"/>
<path d="M6330 5999 c0 -4 7 -22 15 -40 8 -19 14 -27 14 -19 0 14 -28 72 -29
59z"/>
<path d="M6671 5980 c0 -8 4 -35 9 -60 16 -76 25 -274 12 -266 -6 3 -13 2 -16
-3 -4 -5 -2 -12 4 -16 12 -8 13 -72 1 -79 -14 -9 -22 6 -10 21 12 13 2 18 -28
14 -7 -1 -13 5 -13 13 0 8 -5 18 -11 22 -7 4 -10 1 -7 -7 3 -8 -2 -20 -11 -27
-15 -11 -14 -12 0 -6 10 3 20 1 24 -5 3 -7 -2 -11 -15 -11 -17 0 -19 -3 -10
-19 14 -28 12 -36 -5 -21 -8 7 -15 9 -15 5 0 -4 -6 -3 -12 2 -7 5 -29 10 -48
11 l-35 1 35 -10 c19 -6 44 -15 55 -20 18 -8 18 -9 -2 -3 -17 4 -23 1 -23 -10
0 -9 6 -16 13 -16 8 0 8 -3 2 -8 -6 -4 -10 -14 -10 -22 1 -8 -3 -24 -8 -34 -7
-15 -6 -18 6 -13 11 4 13 0 10 -14 -5 -19 -6 -19 -22 4 -9 13 -22 22 -28 20
-7 -3 -13 0 -13 6 0 5 9 8 20 6 11 -2 20 0 20 6 0 5 -7 9 -16 9 -8 0 -13 4 -9
9 3 5 1 12 -5 16 -11 7 -31 -35 -23 -48 2 -4 -1 -6 -8 -5 -6 2 -14 -3 -17 -11
-3 -10 0 -12 14 -7 10 4 15 4 11 0 -4 -4 1 -13 11 -21 16 -12 16 -13 -2 -7
-11 4 -22 1 -27 -7 -6 -10 -9 -11 -10 -1 -1 6 -3 17 -4 22 -1 6 -3 15 -4 21 0
5 -6 7 -11 4 -6 -4 -7 -12 -3 -18 3 -7 -3 -3 -15 7 -12 11 -19 22 -16 25 4 3
9 0 11 -7 4 -10 8 -10 21 0 8 7 18 12 21 10 3 -2 7 0 8 5 2 4 -11 16 -28 25
-17 10 -28 22 -24 27 3 5 0 13 -6 17 -8 5 -9 3 -4 -6 6 -10 4 -12 -8 -7 -16 6
-16 4 -2 -23 15 -30 14 -32 -14 -34 -8 -1 -16 -8 -18 -16 -3 -11 -2 -11 4 -3
5 7 14 9 23 3 11 -7 11 -13 2 -32 -12 -22 -12 -22 -8 -1 3 16 0 20 -11 16 -8
-3 -18 -1 -22 5 -4 7 -11 4 -19 -8 -10 -17 -9 -19 5 -17 10 1 19 -2 20 -8 1
-5 -5 -9 -14 -7 -8 2 -12 -1 -8 -7 3 -7 0 -8 -9 -5 -21 8 -20 20 5 56 12 16
19 31 16 34 -3 3 4 30 14 59 10 30 19 64 19 77 0 21 0 21 15 2 14 -18 15 -17
6 7 -5 15 -10 72 -10 127 -1 91 -17 210 -27 199 -3 -2 0 -24 5 -48 17 -74 13
-236 -9 -318 -31 -121 -74 -197 -159 -282 -119 -119 -220 -156 -451 -166
l-137 -6 -25 34 c-62 82 -119 222 -148 364 -10 50 -19 79 -19 65 -1 -41 36
-192 63 -259 17 -43 21 -59 11 -51 -12 10 -19 10 -33 -3 -14 -13 -21 -14 -30
-5 -13 13 -42 20 -42 10 1 -12 70 -52 71 -42 1 6 3 15 4 20 1 6 3 13 4 17 0 4
6 2 13 -5 9 -9 7 -16 -6 -31 -21 -23 -35 -23 -54 -1 -11 13 -12 12 -7 -7 4
-15 2 -21 -9 -19 -9 1 -19 6 -23 11 -4 4 -2 5 5 0 10 -5 13 -1 10 16 -4 31
-20 31 -25 -1 -6 -40 -19 -43 -18 -4 0 29 -5 38 -22 45 -17 6 -21 5 -17 -6 3
-8 11 -13 17 -12 16 3 12 -62 -4 -77 -8 -7 -10 -7 -6 0 11 20 16 64 6 64 -5 0
-9 -4 -9 -10 0 -5 -8 -10 -17 -10 -15 0 -16 2 -3 10 8 5 10 10 5 10 -6 0 -16
-5 -23 -12 -9 -9 -12 -9 -12 1 0 7 -5 9 -12 5 -8 -5 -9 -2 -4 12 4 10 4 15 0
11 -10 -10 -35 13 -28 27 3 6 -1 3 -8 -6 -26 -31 -44 -2 -79 122 -10 36 -18
55 -18 43 -1 -27 52 -198 85 -270 l23 -53 -680 -1 c-738 -2 -688 -1 -707 -13
-7 -4 -16 -5 -20 -1 -3 3 0 10 8 15 13 8 12 10 -2 10 -10 0 -18 -5 -18 -11 0
-5 -4 -7 -10 -4 -6 4 -7 -1 -4 -12 5 -16 4 -16 -10 1 -9 11 -16 14 -16 8 0
-34 -16 -62 -35 -62 -8 0 -15 8 -15 18 0 15 2 15 11 2 9 -13 10 -13 6 2 -3 9
-1 19 6 22 7 3 6 5 -3 5 -8 0 -24 -15 -36 -33 -19 -30 -20 -34 -5 -45 9 -6 11
-9 4 -6 -6 3 -13 -3 -16 -12 -3 -16 -5 -16 -11 2 -4 11 -14 32 -22 46 -7 14
-10 30 -6 34 4 5 1 5 -7 0 -8 -4 -17 -2 -22 6 -6 10 -9 7 -9 -10 0 -13 3 -22
6 -18 3 3 12 0 19 -6 11 -10 11 -15 0 -27 -7 -8 -15 -24 -18 -35 -4 -15 -5
-13 -6 8 0 15 4 27 9 27 6 0 10 5 10 11 0 6 -7 9 -15 5 -9 -3 -15 0 -15 9 0 9
-6 12 -16 8 -13 -5 -13 -7 -2 -14 9 -6 7 -9 -9 -9 -17 0 -21 4 -17 18 5 13 4
14 -4 3 -13 -18 -3 -56 11 -42 14 14 37 14 37 1 0 -5 -6 -7 -14 -4 -10 4 -22
-8 -35 -34 -11 -21 -27 -39 -35 -39 -8 0 -13 4 -10 9 3 5 9 6 13 3 5 -2 13 7
19 20 7 14 8 25 2 25 -5 0 -8 15 -6 34 1 19 -1 33 -5 30 -7 -4 -23 26 -20 39
1 5 -3 6 -8 3 -5 -4 -8 -18 -5 -32 3 -16 1 -23 -6 -19 -17 11 -11 -10 10 -33
22 -23 14 -31 -9 -9 -10 10 -12 8 -9 -8 2 -14 -2 -19 -14 -17 -21 3 -23 -8 -6
-28 7 -8 4 -7 -7 3 -20 18 -20 18 -1 33 15 10 19 25 19 59 -1 25 3 48 8 51 5
3 9 13 8 22 0 12 -3 10 -10 -6 -5 -14 -13 -20 -20 -16 -7 4 -9 3 -6 -2 3 -6 2
-16 -3 -24 -5 -7 -4 -20 3 -30 8 -14 5 -23 -13 -41 -18 -18 -21 -20 -17 -6 5
12 3 16 -5 11 -7 -5 -9 -2 -5 9 4 11 2 14 -7 11 -15 -6 -29 22 -21 39 3 7 -2
1 -12 -12 -16 -22 -23 -40 -25 -68 -1 -7 -8 -13 -17 -13 -14 0 -14 -2 -1 -9 8
-6 17 -8 22 -5 4 2 12 -5 18 -16 7 -13 7 -20 0 -20 -5 0 -10 6 -10 14 0 9 -9
13 -26 11 -25 -2 -25 -2 -22 59 3 43 7 60 17 58 7 -1 10 2 7 7 -17 26 45 110
213 294 13 15 22 27 19 27 -18 0 -218 -237 -242 -286 -25 -50 -28 -66 -24
-134 4 -106 38 -163 123 -205 l60 -30 970 -3 970 -3 90 -114 90 -114 218 0
218 -1 -110 132 c-60 73 -108 134 -107 136 2 1 46 9 97 17 372 55 667 325 763
695 23 89 31 284 17 393 -11 80 -29 153 -30 117z m-31 -461 c-7 -16 -19 -29
-28 -29 -13 0 -12 2 3 14 12 8 16 19 11 31 -3 10 -1 24 6 33 12 13 13 13 16
-2 2 -10 -2 -31 -8 -47z m40 1 c0 -11 -4 -20 -9 -20 -6 0 -9 9 -8 20 1 11 5
20 9 20 4 0 8 -9 8 -20z m-93 -52 c-3 -7 -5 -2 -5 12 0 14 2 19 5 13 2 -7 2
-19 0 -25z m73 -30 c-10 -23 -10 -23 -6 0 2 12 0 22 -5 22 -4 0 -6 7 -2 16 5
14 7 14 14 1 5 -9 5 -25 -1 -39z m-235 22 c10 -11 13 -20 7 -20 -6 0 -16 9
-22 20 -6 11 -9 20 -7 20 2 0 12 -9 22 -20z m190 -30 c4 -11 10 -18 15 -15 4
3 10 -2 14 -10 3 -8 1 -17 -3 -20 -5 -3 -12 2 -15 11 -3 8 -11 12 -17 8 -8 -4
-9 -3 -5 5 4 6 2 18 -4 26 -8 10 -9 15 -2 15 6 0 14 -9 17 -20z m-28 -27 c-4
-3 -2 -12 4 -20 8 -8 8 -13 1 -13 -6 0 -19 -3 -29 -6 -15 -5 -15 -4 -3 5 8 6
16 15 16 21 2 17 4 20 11 20 3 0 3 -3 0 -7z m-51 -28 c1 -8 -2 -17 -7 -21 -13
-7 -11 -34 2 -34 5 0 7 5 3 12 -4 7 -3 8 5 4 6 -4 9 -12 6 -17 -9 -14 -31 -11
-46 8 -10 11 -10 14 -1 9 7 -4 12 -1 12 8 0 9 4 16 9 16 6 0 8 10 6 21 -3 12
-1 19 2 15 4 -4 8 -13 9 -21z m-109 -27 c-3 -7 -5 -2 -5 12 0 14 2 19 5 13 2
-7 2 -19 0 -25z m-30 6 c-3 -3 -12 -4 -19 -1 -8 3 -5 6 6 6 11 1 17 -2 13 -5z
m187 -35 c-15 -16 -30 -29 -33 -29 -3 0 0 5 7 12 8 8 8 17 1 32 -9 19 -9 20 4
3 12 -14 16 -15 26 -4 6 8 7 18 3 22 -4 5 -1 5 6 1 11 -6 7 -15 -14 -37z
m-275 28 c-2 -1 -13 -9 -24 -17 -19 -14 -19 -14 -6 3 7 9 18 17 24 17 6 0 8
-1 6 -3z m168 -4 c-4 -3 -2 -11 3 -18 7 -8 5 -12 -4 -12 -8 0 -12 7 -11 16 5
22 4 21 12 21 3 0 3 -3 0 -7z m-87 -33 c-14 -25 -32 -36 -23 -14 4 11 3 15 -5
10 -6 -3 -14 -1 -18 5 -4 8 -3 9 5 5 6 -4 14 -1 17 8 3 8 12 12 20 9 10 -4 11
-10 4 -23z m-30 -47 c0 -2 -11 4 -25 13 -24 16 -25 15 -34 -7 -5 -13 -10 -18
-10 -11 -1 7 4 21 11 31 11 18 12 17 35 -2 12 -11 23 -22 23 -24z m70 41 c0
-8 -19 -13 -24 -6 -3 5 1 9 9 9 8 0 15 -2 15 -3z m70 -24 c0 -5 -2 -10 -4 -10
-3 0 -8 5 -11 10 -3 6 -1 10 4 10 6 0 11 -4 11 -10z m-96 -16 c3 -8 2 -12 -4
-9 -6 3 -10 10 -10 16 0 14 7 11 14 -7z m155 9 c-5 -29 3 -33 22 -12 19 23 20
23 10 2 -6 -12 -15 -25 -21 -28 -11 -7 -32 29 -23 39 8 8 13 8 12 -1z m-37
-21 c3 -11 0 -19 -7 -19 -7 0 -10 8 -7 19 2 10 6 18 7 18 1 0 5 -8 7 -18z
m-162 -6 c0 -3 -4 -8 -10 -11 -5 -3 -10 -1 -10 4 0 6 5 11 10 11 6 0 10 -2 10
-4z m-1136 -29 c-5 -15 -3 -18 7 -11 11 6 11 4 0 -10 -12 -15 -12 -17 0 -14 8
2 16 6 19 9 8 11 50 -9 49 -23 0 -10 -2 -10 -6 0 -7 17 -43 15 -43 -2 0 -8 -7
-17 -16 -20 -15 -6 -15 -4 -3 11 12 15 12 16 -3 10 -12 -4 -19 0 -23 14 -4 11
-4 23 -1 26 3 3 -2 12 -11 18 -15 11 -13 13 10 13 23 0 26 -4 21 -21z m1190 7
c5 -14 4 -15 -9 -4 -17 14 -19 20 -6 20 5 0 12 -7 15 -16z m34 -9 c-3 -3 -9 2
-12 12 -6 14 -5 15 5 6 7 -7 10 -15 7 -18z m39 10 c0 -8 -4 -12 -9 -9 -5 3 -6
10 -3 15 9 13 12 11 12 -6z m-977 -10 c-10 -12 -10 -15 3 -15 8 0 17 -7 21
-15 3 -8 1 -15 -4 -15 -6 0 -10 5 -10 11 0 8 -5 8 -15 -1 -13 -11 -15 -9 -11
11 3 13 5 27 5 32 1 4 6 7 12 7 8 0 8 -5 -1 -15z m1024 -45 c-10 -16 -20 -27
-22 -25 -3 3 1 11 8 20 7 8 9 15 4 15 -8 0 16 19 24 20 2 0 -5 -13 -14 -30z
m-263 -3 c-10 -9 -11 -8 -5 6 3 10 9 15 12 12 3 -3 0 -11 -7 -18z m-996 -7 c3
-5 1 -10 -4 -10 -6 0 -11 5 -11 10 0 6 2 10 4 10 3 0 8 -4 11 -10z m1219 -5
c-4 -8 -13 -15 -22 -15 -13 0 -12 3 4 15 24 18 25 18 18 0z m-67 -1 c-3 -3
-12 -4 -19 -1 -8 3 -5 6 6 6 11 1 17 -2 13 -5z m-943 -30 c3 -8 2 -12 -4 -9
-6 3 -10 10 -10 16 0 14 7 11 14 -7z m-164 -10 c0 -8 -5 -12 -10 -9 -6 4 -8
11 -5 16 9 14 15 11 15 -7z m1137 -24 c1 -11 -2 -22 -6 -24 -6 -4 -7 26 -2 42
3 8 7 -1 8 -18z m-2108 -5 c-3 -2 -19 -5 -37 -7 -18 -1 -32 -5 -32 -9 0 -4
-15 -3 -32 2 -41 11 -38 11 -32 -4 3 -8 -3 -13 -16 -13 -11 0 -19 5 -16 11 5
15 -26 15 -37 1 -6 -8 -10 -7 -14 2 -2 6 -9 12 -14 12 -6 0 -8 -4 -5 -8 3 -5
0 -9 -7 -10 -7 0 -21 -3 -32 -5 -11 -2 -26 3 -33 12 -12 14 -13 14 -8 -4 6
-19 5 -19 -8 -2 -11 14 -15 15 -19 4 -3 -8 0 -20 6 -27 8 -8 5 -8 -10 1 -13 8
-23 19 -23 25 0 12 -78 13 -98 0 -7 -4 -12 -14 -12 -22 0 -8 -4 -13 -9 -10 -5
4 -4 17 2 31 l12 25 239 0 c132 0 237 -2 235 -5z m130 1 c-9 -9 -79 -24 -74
-16 3 5 -7 11 -22 13 -16 2 1 5 36 6 35 0 62 -1 60 -3z m168 -2 c-7 -8 -148
-6 -156 1 -2 3 33 5 79 5 46 0 80 -3 77 -6z m150 -1 c-7 -7 -129 -5 -136 3 -2
2 29 4 69 4 40 0 70 -3 67 -7z m63 -2 c0 -4 -11 -6 -25 -3 -14 2 -25 6 -25 8
0 2 11 4 25 4 14 0 25 -4 25 -9z m138 2 c-10 -2 -28 -2 -40 0 -13 2 -5 4 17 4
22 1 32 -1 23 -4z m65 0 c-7 -2 -21 -2 -30 0 -10 3 -4 5 12 5 17 0 24 -2 18
-5z m-1260 -16 c11 10 58 13 52 2 -4 -5 -15 -9 -27 -9 -20 0 -20 0 -1 -17 10
-10 14 -14 7 -10 -7 4 -15 4 -18 -1 -3 -5 -17 -7 -31 -5 -20 4 -23 9 -15 23 5
9 6 21 2 26 -4 5 0 3 9 -4 9 -6 19 -9 22 -5z m161 -18 c-3 -5 -9 -7 -14 -4 -4
2 -19 -4 -32 -15 -24 -18 -38 -18 -38 3 0 5 7 6 15 3 9 -3 18 1 21 9 4 8 10
13 14 10 5 -3 11 -1 15 5 4 6 11 8 16 4 5 -3 7 -10 3 -15z m2458 -11 c-7 -7
-12 -8 -12 -2 0 14 12 26 19 19 2 -3 -1 -11 -7 -17z m-44 -13 c-3 -3 -9 2 -12
12 -6 14 -5 15 5 6 7 -7 10 -15 7 -18z m-2855 -5 c3 -11 1 -18 -4 -14 -5 3 -9
12 -9 20 0 20 7 17 13 -6z m197 0 c0 -5 -4 -10 -10 -10 -5 0 -10 5 -10 10 0 6
5 10 10 10 6 0 10 -4 10 -10z m-319 -31 c13 -26 1 -24 -22 3 -23 26 -24 29 -4
22 9 -4 20 -15 26 -25z m256 9 c-3 -8 -6 -5 -6 6 -1 11 2 17 5 13 3 -3 4 -12
1 -19z m117 6 c3 -8 2 -13 -3 -9 -5 3 -11 0 -13 -6 -2 -7 -9 -5 -17 5 -12 14
-12 16 3 10 9 -3 16 -1 16 5 0 16 7 14 14 -5z m407 -21 c13 -16 12 -17 -3 -4
-17 13 -22 21 -14 21 2 0 10 -8 17 -17z m-651 -23 c0 -5 -4 -10 -10 -10 -5 0
-10 5 -10 10 0 6 5 10 10 10 6 0 10 -4 10 -10z m297 4 c-3 -3 -12 -4 -19 -1
-8 3 -5 6 6 6 11 1 17 -2 13 -5z m-412 -14 c3 -5 2 -10 -4 -10 -5 0 -13 5 -16
10 -3 6 -2 10 4 10 5 0 13 -4 16 -10z m263 5 c-2 -1 -12 -7 -24 -13 -15 -8
-21 -8 -21 1 0 7 11 13 24 13 14 1 23 1 21 -1z m-98 -25 c0 -5 -2 -10 -4 -10
-3 0 -8 5 -11 10 -3 6 -1 10 4 10 6 0 11 -4 11 -10z m90 -20 c0 -5 -2 -10 -4
-10 -3 0 -8 5 -11 10 -3 6 -1 10 4 10 6 0 11 -4 11 -10z m-270 -4 c0 -2 -8
-10 -17 -17 -16 -13 -17 -12 -4 4 13 16 21 21 21 13z m-60 -27 c0 -6 -4 -7
-10 -4 -5 3 -10 11 -10 16 0 6 5 7 10 4 6 -3 10 -11 10 -16z m321 -72 c-10 -9
-11 -8 -5 6 3 10 9 15 12 12 3 -3 0 -11 -7 -18z m-280 -4 c13 -16 12 -17 -3
-4 -17 13 -22 21 -14 21 2 0 10 -8 17 -17z"/>
<path d="M4070 5070 c0 -5 7 -7 15 -4 8 4 15 8 15 10 0 2 -7 4 -15 4 -8 0 -15
-4 -15 -10z"/>
<path d="M3780 5046 c0 -2 7 -7 16 -10 8 -3 12 -2 9 4 -6 10 -25 14 -25 6z"/>
<path d="M6480 5786 c0 -2 8 -10 18 -17 15 -13 16 -12 3 4 -13 16 -21 21 -21
13z"/>
<path d="M6678 5743 c5 -21 7 -23 10 -9 2 10 0 22 -6 28 -6 6 -7 0 -4 -19z"/>
<path d="M6624 5721 c1 -17 26 -28 26 -11 0 6 -4 9 -9 5 -5 -3 -11 0 -14 7 -2
9 -4 8 -3 -1z"/>
<path d="M6499 5703 c-13 -16 -12 -17 4 -4 9 7 17 15 17 17 0 8 -8 3 -21 -13z"/>
<path d="M5413 5675 c0 -22 2 -30 4 -17 2 12 2 30 0 40 -3 9 -5 -1 -4 -23z"/>
<path d="M6646 5689 c-19 -19 -19 -19 0 -19 13 0 20 7 21 20 2 24 3 24 -21 -1z"/>
<path d="M6519 5678 c-8 -7 -12 -12 -10 -11 2 2 10 -2 17 -8 10 -8 13 -6 11
10 -1 12 -2 21 -2 21 -1 0 -8 -6 -16 -12z"/>
<path d="M6576 5681 c-3 -4 4 -7 14 -8 11 -1 22 2 24 6 3 4 -4 7 -14 8 -11 1
-22 -2 -24 -6z"/>
<path d="M5091 5644 c0 -11 3 -14 6 -6 3 7 2 16 -1 19 -3 4 -6 -2 -5 -13z"/>
<path d="M6550 5655 c0 -2 6 -8 13 -14 10 -8 14 -7 14 2 0 8 -6 14 -14 14 -7
0 -13 -1 -13 -2z"/>
<path d="M6596 5643 c-6 -14 -5 -15 5 -6 7 7 10 15 7 18 -3 3 -9 -2 -12 -12z"/>
<path d="M6620 5650 c0 -5 4 -10 9 -10 6 0 13 5 16 10 3 6 -1 10 -9 10 -9 0
-16 -4 -16 -10z"/>
<path d="M6493 5624 c10 -12 19 -31 20 -41 1 -22 27 -28 27 -6 0 7 5 13 11 13
5 0 8 -4 5 -9 -3 -5 2 -15 12 -22 15 -13 16 -12 4 2 -10 14 -10 20 3 32 19 19
19 24 0 24 -8 0 -11 -5 -8 -10 3 -5 0 -8 -8 -5 -8 3 -14 10 -14 16 0 5 -3 14
-7 17 -4 4 -5 -4 -2 -18 2 -14 0 -29 -6 -32 -5 -3 -10 0 -10 8 0 8 -10 22 -22
33 l-23 19 18 -21z"/>
<path d="M6641 5614 c0 -11 3 -14 6 -6 3 7 2 16 -1 19 -3 4 -6 -2 -5 -13z"/>
<path d="M6660 5616 c0 -9 5 -16 10 -16 6 0 10 4 10 9 0 6 -4 13 -10 16 -5 3
-10 -1 -10 -9z"/>
<path d="M6471 5594 c0 -11 3 -14 6 -6 3 7 2 16 -1 19 -3 4 -6 -2 -5 -13z"/>
<path d="M6430 5560 c-9 -6 -10 -10 -3 -10 6 0 15 5 18 10 8 12 4 12 -15 0z"/>
<path d="M4274 5538 l-19 -23 23 19 c21 18 27 26 19 26 -2 0 -12 -10 -23 -22z"/>
<path d="M5101 5544 c0 -11 3 -14 6 -6 3 7 2 16 -1 19 -3 4 -6 -2 -5 -13z"/>
<path d="M6456 5535 c-3 -8 -10 -15 -16 -15 -6 0 -8 5 -4 12 4 7 3 8 -4 4 -19
-12 -14 -29 7 -23 22 6 33 -13 20 -34 -7 -11 -9 -11 -9 4 0 9 -5 17 -10 17 -7
0 -7 -6 0 -20 17 -32 39 -25 35 10 l-4 31 29 -21 c17 -12 30 -26 30 -31 0 -5
4 -9 8 -9 5 0 9 7 9 14 0 8 -5 14 -11 13 -6 -1 -10 6 -10 16 1 9 -3 18 -10 18
-6 1 -18 2 -26 3 -8 0 -14 7 -12 14 3 17 -15 15 -22 -3z"/>
<path d="M3689 5523 c-13 -16 -12 -17 4 -4 16 13 21 21 13 21 -2 0 -10 -8 -17
-17z"/>
<path d="M5112 5480 c0 -19 2 -27 5 -17 2 9 2 25 0 35 -3 9 -5 1 -5 -18z"/>
<path d="M4204 5468 l-29 -33 33 29 c30 28 37 36 29 36 -2 0 -16 -15 -33 -32z"/>
<path d="M3620 5445 c-24 -24 -42 -46 -39 -48 2 -2 24 19 48 45 55 61 50 63
-9 3z"/>
<path d="M4127 5390 c-8 -12 -66 -74 -129 -138 -105 -108 -135 -142 -125 -142
9 0 279 291 274 296 -3 3 -12 -4 -20 -16z"/>
<path d="M5364 5279 c-1 -21 3 -39 7 -39 8 0 7 66 -2 74 -2 2 -5 -13 -5 -35z"/>
<path d="M5450 5300 c0 -5 5 -10 11 -10 5 0 7 5 4 10 -3 6 -8 10 -11 10 -2 0
-4 -4 -4 -10z"/>
<path d="M5311 5293 c-1 -17 16 -25 25 -12 4 7 3 9 -4 5 -5 -3 -13 0 -15 6 -4
9 -6 10 -6 1z"/>
<path d="M5393 5285 c0 -8 4 -15 9 -15 4 0 8 7 8 15 0 8 -4 15 -8 15 -5 0 -9
-7 -9 -15z"/>
<path d="M5280 5261 c0 -11 4 -22 9 -25 4 -3 6 6 3 19 -5 30 -12 33 -12 6z"/>
<path d="M5430 5261 c0 -6 4 -13 10 -16 6 -3 7 1 4 9 -7 18 -14 21 -14 7z"/>
<path d="M3770 5131 c0 -6 4 -13 10 -16 6 -3 7 1 4 9 -7 18 -14 21 -14 7z"/>
<path d="M3636 5104 c-8 -20 -8 -24 2 -24 4 0 8 9 9 20 2 24 -3 26 -11 4z"/>
<path d="M3707 5101 c-4 -17 -3 -21 5 -13 5 5 8 16 6 23 -3 8 -7 3 -11 -10z"/>
<path d="M3537 5092 c-15 -16 -15 -19 -2 -19 8 0 13 3 10 5 -3 3 0 11 6 19 17
20 5 16 -14 -5z"/>
<path d="M3666 5061 c-4 -5 3 -7 14 -4 23 6 26 13 6 13 -8 0 -17 -4 -20 -9z"/>
<path d="M895 3779 c-83 -19 -154 -108 -155 -192 0 -96 56 -152 200 -198 118
-37 150 -59 150 -99 0 -42 -9 -59 -41 -75 -57 -30 -146 -15 -211 36 -20 16
-39 29 -42 29 -2 0 -22 -21 -42 -46 l-38 -46 34 -29 c54 -44 130 -69 213 -69
168 0 250 68 249 207 -1 104 -38 140 -197 193 -116 39 -145 60 -145 105 0 78
101 100 206 45 31 -17 60 -27 63 -22 3 4 19 25 36 46 28 37 29 39 10 53 -71
54 -204 83 -290 62z"/>
<path d="M1890 3781 c-148 -31 -247 -156 -258 -326 -7 -121 20 -206 91 -278
70 -72 125 -91 251 -85 76 3 99 8 141 31 98 54 94 46 96 203 l1 139 -131 3
-131 3 0 -51 0 -50 70 0 70 0 0 -65 0 -66 -42 -19 c-50 -23 -125 -26 -171 -6
-48 20 -94 78 -113 144 -31 103 4 219 84 280 30 23 45 27 102 27 58 0 74 -4
119 -32 l52 -33 39 42 c36 40 38 44 23 61 -51 55 -206 97 -293 78z"/>
<path d="M4050 3781 c-163 -36 -266 -202 -245 -395 14 -132 68 -217 169 -266
53 -26 75 -31 137 -32 44 0 94 7 123 17 l50 17 40 -45 41 -46 48 22 48 22 -41
49 c-22 26 -40 50 -40 53 0 2 12 20 26 38 67 88 86 255 43 372 -28 73 -94 144
-161 173 -56 24 -177 35 -238 21z m152 -121 c119 -33 178 -194 119 -325 l-23
-50 -40 47 -40 47 -49 -31 -49 -30 45 -51 c44 -50 45 -52 23 -59 -37 -10 -94
-9 -125 3 -40 15 -92 67 -114 114 -21 45 -25 147 -8 208 28 102 145 159 261
127z"/>
<path d="M1370 3438 l0 -338 60 0 60 0 0 338 0 337 -60 0 -60 0 0 -337z"/>
<path d="M2783 3622 l-95 -154 -67 104 c-37 57 -80 124 -96 150 l-30 48 -67 0
-68 0 0 -335 0 -335 60 0 60 0 2 227 3 226 94 -147 c52 -81 98 -149 101 -151
4 -2 49 63 101 145 51 83 97 150 101 150 4 0 8 -101 8 -225 l0 -225 60 0 60 0
0 338 0 337 -66 0 -66 0 -95 -153z"/>
<path d="M3259 3450 c-67 -179 -124 -331 -127 -337 -3 -10 13 -13 61 -13 l66
0 21 58 c11 31 23 63 25 70 3 9 41 12 143 12 l138 0 24 -69 24 -70 68 -3 c37
-2 68 -1 68 2 0 3 -58 155 -128 339 l-128 334 -66 1 -66 1 -123 -325z m235 35
c25 -66 46 -123 46 -127 0 -5 -43 -8 -95 -8 -52 0 -95 2 -95 4 0 4 71 204 85
239 4 10 9 17 10 15 2 -2 24 -57 49 -123z"/>
<path d="M4622 3514 l3 -261 30 -49 c19 -30 49 -60 79 -79 42 -25 62 -31 129
-34 135 -6 224 37 271 131 26 52 26 53 26 302 l0 251 -60 0 -60 1 0 -236 c0
-265 -5 -290 -70 -322 -79 -40 -170 -13 -207 62 -22 42 -23 56 -23 270 l0 225
-61 0 -60 0 3 -261z"/>
<path d="M5490 3755 c-4 -11 -32 -87 -63 -170 -31 -82 -85 -225 -120 -317
l-65 -168 69 0 68 0 22 70 23 70 142 0 143 0 22 -70 23 -70 68 0 67 0 -28 78
c-23 60 -209 543 -227 587 -2 6 -34 10 -70 10 -58 1 -67 -2 -74 -20z m129
-271 l48 -129 -95 -3 c-52 -1 -96 -1 -99 1 -2 2 18 63 43 136 26 72 49 130 51
127 2 -2 26 -62 52 -132z"/>
<path d="M6000 3438 l0 -338 60 0 60 0 2 231 3 230 164 -230 164 -231 56 0 56
0 0 336 0 336 -58 0 -58 1 1 -227 c0 -133 -3 -226 -9 -226 -5 0 -11 6 -14 13
-6 16 -275 408 -293 427 -10 10 -35 15 -74 15 l-60 0 0 -337z"/>
<path d="M6710 3718 l0 -58 105 0 105 0 0 -280 0 -280 60 0 60 0 0 280 0 280
105 0 105 0 0 58 0 57 -270 0 -270 0 0 -57z"/>
<path d="M7400 3775 c0 0 -1 -152 -3 -338 l-2 -337 63 0 62 0 0 338 0 337 -60
0 c-33 0 -60 0 -60 0z"/>
<path d="M7720 3438 l0 -338 66 0 65 0 -3 109 -3 109 115 4 c126 4 169 19 222
75 37 39 48 74 48 151 0 81 -22 134 -73 179 -46 41 -70 45 -271 47 l-166 1 0
-337z m352 184 c28 -28 33 -39 33 -81 0 -85 -57 -121 -189 -121 l-66 0 0 121
0 121 95 -4 c92 -3 96 -4 127 -36z"/>
<path d="M8380 3438 l0 -338 65 0 65 0 0 135 0 135 160 0 160 0 0 -135 0 -135
60 0 60 0 0 338 0 337 -58 0 -57 0 -3 -137 -3 -138 -159 0 -159 0 -3 136 -3
136 -63 2 -62 1 0 -337z"/>
<path d="M9158 3437 l-3 -337 63 0 62 0 0 339 0 339 -60 -1 -59 -2 -3 -338z"/>
</g>
</svg>
